<svg xmlns="http://www.w3.org/2000/svg" width="24" height="24" fill="#000000" viewBox="0 0 16 16">
    <path d="M5.5 5.5a.5.5 0 0 1 .5.5v6a.5.5 0 0 1-1 0v-6a.5.5 0 0 1 .5-.5zm2.5.5a.5.5 0 0 0-1 0v6a.5.5 0 0 0 1 0v-6zm2 .5a.5.5 0 0 1 1 0v6a.5.5 0 0 1-1 0v-6z"/>
    <path fill-rule="evenodd" d="M14.5 3a1 1 0 0 1-1 1H13v9a2 2 0 0 1-2 2H5a2 2 0 0 1-2-2V4h-.5a1 1 0 0 1 0-2H5a1 1 0 0 1 1-1h4a1 1 0 0 1 1 1h2.5a1 1 0 0 1 1 1zM4.118 4 4 4.059V13a1 1 0 0 0 1 1h6a1 1 0 0 0 1-1V4.059L11.882 4H4.118zM5.5 2a.5.5 0 0 0-.5.5V3h6v-.5a.5.5 0 0 0-.5-.5h-5z"/>
</svg>
